<svg xmlns="http://www.w3.org/2000/svg" xmlns:xlink="http://www.w3.org/1999/xlink" viewBox="0 0 305 132.18"><defs><style>.a{fill:#1976d2;}.b{fill:#64b5f6;}.c{fill:#ff6e40;}.d{fill:url(#a);}</style><linearGradient id="a" y1="0.5" x2="1" y2="0.5" gradientUnits="objectBoundingBox"><stop offset="0" stop-color="#64b5f6"/><stop offset="1" stop-color="#1976d2"/></linearGradient></defs><g transform="translate(-455 -575)"><g transform="translate(-128 90.18)"><circle class="a" cx="50" cy="50" r="50" transform="translate(583 517)"/><circle class="b" cx="25" cy="25" r="25" transform="translate(671 549)"/><circle class="c" cx="37.5" cy="37.5" r="37.5" transform="translate(633 492)"/></g><rect class="d" width="280" height="4" transform="translate(480 645.18)"/><rect class="a" width="136" height="2" transform="matrix(0.259, 0.966, -0.966, 0.259, 526.178, 575)"/><g transform="translate(-123 90.18)"><path class="a" d="M26.6,0H19.711L9.633-22.383V0H2.742V-34.125H9.633l10.1,22.406V-34.125H26.6ZM59.064,0H52.174L42.1-22.383V0H35.2V-34.125H42.1L52.2-11.719V-34.125h6.867ZM84.378-6.984h-9.4L73.152,0H65.863L76.527-34.125h6.3L93.566,0H86.206Zm-7.9-5.742h6.375L79.667-24.891Zm46.877-1.266q0,6.867-3.246,10.664A11.221,11.221,0,0,1,111.1.469a11.349,11.349,0,0,1-9.023-3.762q-3.281-3.762-3.328-10.535v-5.836q0-7.031,3.258-10.98a11.084,11.084,0,0,1,9.047-3.949,11.135,11.135,0,0,1,8.977,3.879q3.281,3.879,3.328,10.887Zm-6.914-5.719q0-4.617-1.312-6.867a4.392,4.392,0,0,0-4.078-2.25A4.408,4.408,0,0,0,107-26.66q-1.312,2.168-1.359,6.6v6.07q0,4.477,1.336,6.6A4.532,4.532,0,0,0,111.1-5.273a4.416,4.416,0,0,0,4.008-2.074q1.313-2.074,1.336-6.434Zm38.064,8.344q-.258,5.836-3.281,8.836t-8.531,3q-5.789,0-8.871-3.809T130.741-14.2v-5.742q0-7.031,3.188-10.84a10.923,10.923,0,0,1,8.859-3.809q5.578,0,8.473,3.117t3.293,8.953H147.64q-.094-3.609-1.113-4.98t-3.738-1.371a4.181,4.181,0,0,0-3.914,1.934q-1.148,1.934-1.219,6.363v6.445q0,5.086,1.137,6.984a4.176,4.176,0,0,0,3.9,1.9q2.719,0,3.75-1.324t1.172-4.793Z" transform="translate(727 547)"/><path class="a" d="M3.823-4.034,3.99-2.6l.255-1.266L6.293-12.8H7.638l1.986,8.93.255,1.3.185-1.477L11.628-12.8h1.608L10.688,0H9.237L7.1-9.325l-.132-.756-.132.756L4.623,0H3.164L.624-12.8H2.232ZM18,.176A3.469,3.469,0,0,1,15.275-.883a4.578,4.578,0,0,1-.967-3.107V-5.142a5.36,5.36,0,0,1,.927-3.335,3.077,3.077,0,0,1,2.588-1.208,2.964,2.964,0,0,1,2.5,1.063,5.466,5.466,0,0,1,.844,3.313v1.02H15.855v.22a3.469,3.469,0,0,0,.576,2.224,2.03,2.03,0,0,0,1.657.694A2.687,2.687,0,0,0,19.3-1.411a3,3,0,0,0,.98-.822l.809.984A3.529,3.529,0,0,1,18,.176ZM17.824-8.35a1.631,1.631,0,0,0-1.433.664,3.939,3.939,0,0,0-.527,2.061h3.744v-.211a3.634,3.634,0,0,0-.488-1.934A1.5,1.5,0,0,0,17.824-8.35Zm9.132.3a3.785,3.785,0,0,0-.7-.062,1.707,1.707,0,0,0-1.67,1.31V0H23.027V-9.51h1.512l.026.967a1.936,1.936,0,0,1,1.767-1.143,1.37,1.37,0,0,1,.615.123Zm3.938,3.7-.826.949V0H28.512V-13.5h1.556v8.077L33.029-9.51h1.863L31.869-5.537,35.288,0H33.478Zm7.761-7.462v2.3h1.433v1.257H38.654v5.9a1.6,1.6,0,0,0,.185.853.691.691,0,0,0,.633.29,1.965,1.965,0,0,0,.624-.105L40.078,0A3.4,3.4,0,0,1,39,.176a1.635,1.635,0,0,1-1.406-.659,3.107,3.107,0,0,1-.483-1.863V-8.253h-1.45V-9.51h1.45v-2.3ZM50.95,0a3.421,3.421,0,0,1-.2-1.037A2.47,2.47,0,0,1,48.639.176a2.726,2.726,0,0,1-2.017-.725A2.763,2.763,0,0,1,45.9-2.593a2.89,2.89,0,0,1,.984-2.3,4.051,4.051,0,0,1,2.7-.87h1.143V-6.776a1.625,1.625,0,0,0-.378-1.213,1.615,1.615,0,0,0-1.151-.36,1.591,1.591,0,0,0-1.143.417,1.4,1.4,0,0,0-.439,1.059H46.055a2.52,2.52,0,0,1,.431-1.393,3,3,0,0,1,1.16-1.042,3.481,3.481,0,0,1,1.626-.378,3.1,3.1,0,0,1,2.219.725,2.838,2.838,0,0,1,.778,2.114v4.8a5.791,5.791,0,0,0,.3,1.907V0ZM48.876-1.239a2.061,2.061,0,0,0,1.09-.316,1.951,1.951,0,0,0,.756-.791V-4.614h-.879a2.944,2.944,0,0,0-1.749.5,1.577,1.577,0,0,0-.642,1.34A1.739,1.739,0,0,0,47.777-1.6,1.413,1.413,0,0,0,48.876-1.239ZM59.572,0a3.421,3.421,0,0,1-.2-1.037A2.47,2.47,0,0,1,57.261.176a2.726,2.726,0,0,1-2.017-.725,2.763,2.763,0,0,1-.725-2.043A2.89,2.89,0,0,1,55.5-4.9a4.051,4.051,0,0,1,2.7-.87h1.143V-6.776a1.625,1.625,0,0,0-.378-1.213,1.615,1.615,0,0,0-1.151-.36,1.591,1.591,0,0,0-1.143.417,1.4,1.4,0,0,0-.439,1.059H54.677a2.52,2.52,0,0,1,.431-1.393,3,3,0,0,1,1.16-1.042,3.481,3.481,0,0,1,1.626-.378,3.1,3.1,0,0,1,2.219.725,2.838,2.838,0,0,1,.778,2.114v4.8a5.791,5.791,0,0,0,.3,1.907V0ZM57.5-1.239a2.061,2.061,0,0,0,1.09-.316,1.951,1.951,0,0,0,.756-.791V-4.614h-.879a2.944,2.944,0,0,0-1.749.5,1.577,1.577,0,0,0-.642,1.34A1.739,1.739,0,0,0,56.4-1.6,1.413,1.413,0,0,0,57.5-1.239ZM64.767-9.51l.044,1.028a2.775,2.775,0,0,1,2.312-1.2q2.522,0,2.558,3.366V0H68.133V-6.249a2.591,2.591,0,0,0-.374-1.586,1.344,1.344,0,0,0-1.121-.47,1.579,1.579,0,0,0-1.042.387,2.786,2.786,0,0,0-.743,1.011V0H63.3V-9.51Zm13.192,4.5V0H76.351V-12.8h4.078a3.692,3.692,0,0,1,2.8,1.068,3.946,3.946,0,0,1,1.02,2.843,3.909,3.909,0,0,1-.971,2.843A3.756,3.756,0,0,1,80.543-5.01Zm0-1.38h2.47a2.085,2.085,0,0,0,1.644-.642,2.674,2.674,0,0,0,.571-1.837,2.758,2.758,0,0,0-.589-1.846,2.008,2.008,0,0,0-1.617-.694H77.959ZM89.394.176A3.469,3.469,0,0,1,86.669-.883,4.578,4.578,0,0,1,85.7-3.99V-5.142a5.36,5.36,0,0,1,.927-3.335,3.077,3.077,0,0,1,2.588-1.208,2.964,2.964,0,0,1,2.5,1.063,5.466,5.466,0,0,1,.844,3.313v1.02H87.249v.22a3.469,3.469,0,0,0,.576,2.224,2.03,2.03,0,0,0,1.657.694,2.687,2.687,0,0,0,1.208-.259,3,3,0,0,0,.98-.822l.809.984A3.529,3.529,0,0,1,89.394.176ZM89.218-8.35a1.631,1.631,0,0,0-1.433.664,3.939,3.939,0,0,0-.527,2.061H91v-.211a3.634,3.634,0,0,0-.488-1.934A1.5,1.5,0,0,0,89.218-8.35Zm9.132.3a3.785,3.785,0,0,0-.7-.062,1.707,1.707,0,0,0-1.67,1.31V0H94.421V-9.51h1.512l.026.967a1.936,1.936,0,0,1,1.767-1.143,1.37,1.37,0,0,1,.615.123Zm6.17,5.616a1.149,1.149,0,0,0-.378-.861,5.59,5.59,0,0,0-1.459-.844,9.541,9.541,0,0,1-1.771-.888,2.525,2.525,0,0,1-.769-.839,2.319,2.319,0,0,1-.255-1.121,2.5,2.5,0,0,1,.848-1.929,3.1,3.1,0,0,1,2.167-.769,3.092,3.092,0,0,1,2.232.809,2.747,2.747,0,0,1,.844,2.074h-1.547A1.53,1.53,0,0,0,104-7.9a1.45,1.45,0,0,0-1.1-.453,1.54,1.54,0,0,0-1.077.356,1.226,1.226,0,0,0-.391.954,1.043,1.043,0,0,0,.286.765,5.088,5.088,0,0,0,1.375.765,6.915,6.915,0,0,1,2.355,1.323,2.263,2.263,0,0,1,.624,1.639,2.5,2.5,0,0,1-.853,1.982,3.357,3.357,0,0,1-2.285.743,3.408,3.408,0,0,1-2.408-.853,2.816,2.816,0,0,1-.923-2.162h1.564a1.743,1.743,0,0,0,.483,1.239,1.755,1.755,0,0,0,1.283.448,1.761,1.761,0,0,0,1.178-.347A1.171,1.171,0,0,0,104.52-2.435ZM114.97-4.3a5.689,5.689,0,0,1-.813,3.366,2.684,2.684,0,0,1-2.3,1.107,2.55,2.55,0,0,1-2.206-1.081V3.656h-1.547V-9.51h1.406l.079,1.055a2.5,2.5,0,0,1,2.241-1.23A2.676,2.676,0,0,1,114.17-8.6a5.763,5.763,0,0,1,.8,3.261Zm-1.547-.888a4.434,4.434,0,0,0-.492-2.36,1.745,1.745,0,0,0-1.582-.76,1.831,1.831,0,0,0-1.7,1.116v4.948a1.834,1.834,0,0,0,1.714,1.09,1.72,1.72,0,0,0,1.551-.76,4.365,4.365,0,0,0,.505-2.325ZM120.375.176A3.469,3.469,0,0,1,117.65-.883a4.578,4.578,0,0,1-.967-3.107V-5.142a5.36,5.36,0,0,1,.927-3.335A3.077,3.077,0,0,1,120.2-9.686a2.964,2.964,0,0,1,2.5,1.063,5.466,5.466,0,0,1,.844,3.313v1.02H118.23v.22a3.469,3.469,0,0,0,.576,2.224,2.03,2.03,0,0,0,1.657.694,2.687,2.687,0,0,0,1.208-.259,3,3,0,0,0,.98-.822l.809.984A3.529,3.529,0,0,1,120.375.176ZM120.2-8.35a1.631,1.631,0,0,0-1.433.664,3.939,3.939,0,0,0-.527,2.061h3.744v-.211A3.634,3.634,0,0,0,121.5-7.77,1.5,1.5,0,0,0,120.2-8.35Zm8.508,7.2a1.65,1.65,0,0,0,1.239-.479A2.032,2.032,0,0,0,130.456-3h1.468a3.234,3.234,0,0,1-.971,2.272,3.085,3.085,0,0,1-2.246.9,3.309,3.309,0,0,1-2.694-1.112,5.065,5.065,0,0,1-.927-3.309V-5.291a5.042,5.042,0,0,1,.923-3.274A3.283,3.283,0,0,1,128.7-9.686a3.007,3.007,0,0,1,2.316.923,3.753,3.753,0,0,1,.91,2.522h-1.468a2.583,2.583,0,0,0-.505-1.582A1.563,1.563,0,0,0,128.7-8.35a1.783,1.783,0,0,0-1.538.681,3.929,3.929,0,0,0-.519,2.237v1.213a4.23,4.23,0,0,0,.5,2.373A1.8,1.8,0,0,0,128.707-1.151Zm7.049-10.661v2.3h1.433v1.257h-1.433v5.9a1.6,1.6,0,0,0,.185.853.691.691,0,0,0,.633.29,1.965,1.965,0,0,0,.624-.105L137.18,0A3.4,3.4,0,0,1,136.1.176a1.635,1.635,0,0,1-1.406-.659,3.107,3.107,0,0,1-.483-1.863V-8.253h-1.45V-9.51h1.45v-2.3ZM140.713,0h-1.556V-9.51h1.556Zm.123-12.032a1,1,0,0,1-.22.659.82.82,0,0,1-.668.264.809.809,0,0,1-.659-.264,1,1,0,0,1-.22-.659,1.03,1.03,0,0,1,.22-.668.8.8,0,0,1,.659-.272.8.8,0,0,1,.664.277A1.022,1.022,0,0,1,140.836-12.032ZM146.558.176a3.469,3.469,0,0,1-2.725-1.059,4.578,4.578,0,0,1-.967-3.107V-5.142a5.36,5.36,0,0,1,.927-3.335,3.077,3.077,0,0,1,2.588-1.208,2.964,2.964,0,0,1,2.5,1.063,5.466,5.466,0,0,1,.844,3.313v1.02h-5.309v.22a3.469,3.469,0,0,0,.576,2.224,2.03,2.03,0,0,0,1.657.694,2.687,2.687,0,0,0,1.208-.259,3,3,0,0,0,.98-.822l.809.984A3.529,3.529,0,0,1,146.558.176Zm-.176-8.525a1.631,1.631,0,0,0-1.433.664,3.939,3.939,0,0,0-.527,2.061h3.744v-.211a3.634,3.634,0,0,0-.488-1.934A1.5,1.5,0,0,0,146.382-8.35ZM152.271,0V-8.253h-1.239V-9.51h1.239v-1.1A3.435,3.435,0,0,1,153-12.872a2.509,2.509,0,0,1,2-.813,3.119,3.119,0,0,1,.94.149l-.079,1.318a3.082,3.082,0,0,0-.712-.079q-1.327,0-1.327,1.89v.9h1.626v1.257h-1.626V0Z" transform="translate(727 580)"/></g></g></svg>